<?xml version="1.0" encoding="UTF-8"?> <svg xmlns="http://www.w3.org/2000/svg" xmlns:xlink="http://www.w3.org/1999/xlink" id="Layer_1" data-name="Layer 1" viewBox="0 0 256 256"><defs><style>.cls-1{fill:none;}.cls-2{fill:#fff;}.cls-3{fill:#00d0f4;}.cls-4{opacity:0.4;}.cls-5{clip-path:url(#clip-path);}.cls-6{fill:url(#linear-gradient);}.cls-7{fill:#231f20;}.cls-8{fill:url(#linear-gradient-2);}</style><clipPath id="clip-path"><path class="cls-1" d="M247,125.77a12,12,0,0,1-11.08,9h-9.63a20.83,20.83,0,0,0-19,12.06S209,134,185,134H100.05c-5,0-8.09-4-7-9L101,74.38a12,12,0,0,1,11.08-9H248.81c5,0,8.09,4,6.95,9Z"></path></clipPath><linearGradient id="linear-gradient" x1="180.03" y1="202.1" x2="180.03" y2="107.82" gradientTransform="matrix(1, 0, 0, -1, 0, 256)" gradientUnits="userSpaceOnUse"><stop offset="0" stop-color="#231f20" stop-opacity="0"></stop><stop offset="1" stop-color="#231f20" stop-opacity="0.5"></stop></linearGradient><linearGradient id="linear-gradient-2" x1="162.06" y1="158.75" x2="162.06" y2="206.69" gradientTransform="matrix(1, 0, 0, -1, 0, 256)" gradientUnits="userSpaceOnUse"><stop offset="0" stop-color="#fff" stop-opacity="0.2"></stop><stop offset="1" stop-color="#fff" stop-opacity="0.5"></stop></linearGradient></defs><path class="cls-2" d="M44.71,144.17a21.59,21.59,0,0,1,4.87-1.88,27.49,27.49,0,0,1,4.24-.63c1.39-.09,3.08-.13,5-.13a46.88,46.88,0,0,1,9,1.3q6,1.29,9.24,4.33l-6.25,42.67H63l-1.61-5a18.12,18.12,0,0,1-6.43,3.83,22.83,22.83,0,0,1-8.48,1.79,16.45,16.45,0,0,1-6.78-1.25,11.51,11.51,0,0,1-4.82-4.37,16,16,0,0,1-2.42-9.15,68.44,68.44,0,0,1,1-11.43,41.35,41.35,0,0,1,2.81-9.95A27.31,27.31,0,0,1,40,147.87,15.05,15.05,0,0,1,44.71,144.17Zm21.38,7.27a25.25,25.25,0,0,0-7.27-1.34,24.78,24.78,0,0,0-4.56.32,17.83,17.83,0,0,0-2.58.67,10.61,10.61,0,0,0-2.46,1.34A8.54,8.54,0,0,0,46.81,155q-2.23,3.93-3.39,11.34a36.73,36.73,0,0,0-.71,6.66,13.36,13.36,0,0,0,.71,4.68q1.24,3.66,5.49,3.66a20.3,20.3,0,0,0,7.1-1.07A32.23,32.23,0,0,0,62.26,177Z"></path><path class="cls-2" d="M101.17,181.61a4,4,0,0,0,4.37-3.66l.54-3.31a4.21,4.21,0,0,0,.18-1.34c0-1.6-1.13-2.41-3.39-2.41H91.27q-6.42,0-9.56-3.12a9.3,9.3,0,0,1-2.32-6.7,19.94,19.94,0,0,1,.27-3.12l.71-4.38q1-5.88,4.33-8.83c2.23-2,5.61-2.94,10.13-2.94s9.24.16,14.15.48,8.23.85,10,1.57l-1.07,6.87H95.72c-1.84,0-3.1.37-3.79,1.12a5.21,5.21,0,0,0-1.3,2.81l-.44,3.21c-.3,1.85-.09,3,.62,3.39a3.58,3.58,0,0,0,1.88.41c.71,0,1.13,0,1.25,0h11.87q6.16,0,8.93,3.66a10.37,10.37,0,0,1,2.05,6.51,15.74,15.74,0,0,1-.19,2.42l-.8,5.53q-1.06,7-5.45,9.11a20.1,20.1,0,0,1-9.15,1.79c-3.77,0-8.42-.21-13.92-.63s-9-.95-10.31-1.6L78,181.62h23.13Z"></path><path class="cls-2" d="M118.76,189.92l7.5-47.41h10.35l-7.49,47.41Z"></path><path class="cls-2" d="M158.17,144.43a24.75,24.75,0,0,1,4.87-1.82,23.7,23.7,0,0,1,6.6-.9,13.59,13.59,0,0,1,6.16,1.34q4.56,2.23,5.54,8.66c.06.78.09,1.67.09,2.68a18.85,18.85,0,0,1-.35,3.39L176,189.92H165.63l5.09-32.23a13.54,13.54,0,0,0,.18-2.05q0-5.17-5.26-5.17a21.66,21.66,0,0,0-7.06,1,50.77,50.77,0,0,0-7.32,3.44l-5.54,35H135.37l7.49-47.41H153l-.55,5.27c.18-.12.89-.56,2.14-1.3S157,145.06,158.17,144.43Z"></path><path class="cls-2" d="M28.25,179.4a7.8,7.8,0,0,1-3.44,1.76,31.83,31.83,0,0,1-5.44.41,14.39,14.39,0,0,1-5.72-.85,4,4,0,0,1-2-1.52,8.16,8.16,0,0,1-1-2.42,14.93,14.93,0,0,1-.35-3.57,47.28,47.28,0,0,1,.8-7,59.88,59.88,0,0,1,1.79-7.94,11.59,11.59,0,0,1,2.67-4.82,8.22,8.22,0,0,1,3.67-2.23,25.58,25.58,0,0,1,6.2-.54c2.83,0,4.95.6,6.38,1.79l.05.05c.18-.44.36-.87.55-1.29a36.39,36.39,0,0,1,4.12-7.22A24.24,24.24,0,0,0,25.8,142a43,43,0,0,0-10.23,1,16.34,16.34,0,0,0-7.1,3.8,19.07,19.07,0,0,0-4.82,7.36A51.08,51.08,0,0,0,.93,164.52,60.44,60.44,0,0,0,0,173.67q0,7.05,2.86,11,4.29,5.73,16.2,5.72a34.1,34.1,0,0,0,12.33-1.89A22.14,22.14,0,0,1,28.25,179.4Z"></path><path class="cls-2" d="M215.2,142.66a18.75,18.75,0,0,0-5.59,6.87l-.51,1.23a9,9,0,0,1,5.44,1.76,4.35,4.35,0,0,1,1.61,2.67,21.42,21.42,0,0,1,.35,4.29,52.51,52.51,0,0,1-.89,7.85,40.8,40.8,0,0,1-1.79,7.59,10.26,10.26,0,0,1-2.81,4.42,7.78,7.78,0,0,1-3.53,1.82,31.83,31.83,0,0,1-5.44.41,14.3,14.3,0,0,1-5.71-.85,4,4,0,0,1-2-1.52,8.15,8.15,0,0,1-1-2.42,14.88,14.88,0,0,1-.36-3.57,47.28,47.28,0,0,1,.8-7,59.88,59.88,0,0,1,1.79-7.94,11.59,11.59,0,0,1,2.67-4.82,8.22,8.22,0,0,1,3.67-2.23,16,16,0,0,1,2.56-.41l.33-2.56a7,7,0,0,0-2-5,11.41,11.41,0,0,0-1-.94,32.39,32.39,0,0,0-3.62.65,16.23,16.23,0,0,0-7.1,3.8,19,19,0,0,0-4.82,7.36,51.26,51.26,0,0,0-2.72,10.36,59.4,59.4,0,0,0-.94,9.15q0,7.05,2.86,11,4.29,5.72,16.2,5.71t17.06-4.73q5.13-4.74,7.27-17.94a53.55,53.55,0,0,0,.71-8.3q0-7.14-2.68-11.16C222.26,145.42,219.28,143.57,215.2,142.66Z"></path><path class="cls-3" d="M248.81,65.36H112.08a12,12,0,0,0-11.08,9l-7.89,50.56c-1.14,5,2,9,7,9H185c24,0,22.32,12.89,22.32,12.89a20.83,20.83,0,0,1,19-12.06H236a12,12,0,0,0,11.08-9l8.71-51.39C256.9,69.4,253.8,65.36,248.81,65.36Z"></path><g class="cls-4"><g class="cls-5"><rect class="cls-6" x="69.27" y="51.43" width="221.52" height="99.6"></rect></g></g><polygon class="cls-7" points="132.86 122.16 135.56 105.09 120.8 105.09 118.09 122.16 109.86 122.16 116.68 79.08 124.92 79.08 121.98 97.56 136.75 97.56 139.68 79.08 147.92 79.08 141.09 122.16 132.86 122.16"></polygon><path class="cls-7" d="M183.87,114.35a2.9,2.9,0,0,0,.7,1,14.66,14.66,0,0,0,2.32,1,16.47,16.47,0,0,0,2.21.73l-.77,5.12H183q-7.87,0-7.88-7.89a19.51,19.51,0,0,1,.3-3.24L181,76.08h8.24l-5.36,33.65c-.11,1.26-.21,2.23-.26,2.91A3.18,3.18,0,0,0,183.87,114.35Z"></path><path class="cls-7" d="M200.17,114.35a2.9,2.9,0,0,0,.7,1,14.66,14.66,0,0,0,2.32,1,16.47,16.47,0,0,0,2.21.73l-.77,5.12h-5.3q-7.87,0-7.88-7.89a19.51,19.51,0,0,1,.3-3.24l5.53-34.94h8.24l-5.36,33.65c-.11,1.26-.21,2.23-.26,2.91A3.09,3.09,0,0,0,200.17,114.35Z"></path><path class="cls-7" d="M160.4,110.74a16.57,16.57,0,0,0,10.17-2.94,9.57,9.57,0,0,0,2.85-3.59,12.67,12.67,0,0,0,1.21-5.7q0-8.19-12.12-8.18-6.58,0-10.12,2.24a7.94,7.94,0,0,0-2.82,2.85,18.72,18.72,0,0,0-1.8,3.91,46.48,46.48,0,0,0-1.35,5.62,35,35,0,0,0-.68,6.68c0,7,2.84,10.67,8.53,10.94,1.14.07,2.26.12,3.36.12a44.18,44.18,0,0,0,12.94-1.83l1-5.89a67.87,67.87,0,0,1-10.89,1H158.8q-3.18-.06-4.17-1.29a3.4,3.4,0,0,1-.59-2.1,14.33,14.33,0,0,1,.24-2.67A16.46,16.46,0,0,0,160.4,110.74Zm-5-8.71a9.07,9.07,0,0,1,.36-1.23c.07-.2.22-.53.44-1a2.69,2.69,0,0,1,.64-1,8,8,0,0,0,.79-.74c.83-.78,2.26-1.17,4.3-1.17a6.22,6.22,0,0,1,3.38.65,2.22,2.22,0,0,1,.91,1.94,4.32,4.32,0,0,1-2.77,4.24,8.62,8.62,0,0,1-2.2.7,14.82,14.82,0,0,1-2,.27c-.45,0-1,0-1.82,0a16.42,16.42,0,0,1-2.62-.24C155.12,103.48,155.3,102.66,155.45,102Z"></path><path class="cls-7" d="M234.29,94.68c-1.8-2.78-5.3-4.17-10.47-4.17a29.81,29.81,0,0,0-6.8.64,11.17,11.17,0,0,0-4.73,2.42A11.88,11.88,0,0,0,209,98.33a31.06,31.06,0,0,0-1.79,6.8,40.75,40.75,0,0,0-.59,6.09,12.5,12.5,0,0,0,1.89,7.36q2.76,3.87,10.64,3.88a30.55,30.55,0,0,0,6.89-.64,10.61,10.61,0,0,0,4.64-2.36,11.55,11.55,0,0,0,3.06-4.47,29.33,29.33,0,0,0,1.7-6.53,42.42,42.42,0,0,0,.59-6.3A13.46,13.46,0,0,0,234.29,94.68Zm-6.94,12.23a42.32,42.32,0,0,1-1.06,4.91,6.08,6.08,0,0,1-1.47,2.65,3.88,3.88,0,0,1-2,1.11,17.6,17.6,0,0,1-3.32.21,6.31,6.31,0,0,1-3.47-.77,2.49,2.49,0,0,1-.95-1.44,10.45,10.45,0,0,1-.23-2.43,35.62,35.62,0,0,1,.59-5.06,26.17,26.17,0,0,1,1.41-5.53,5.16,5.16,0,0,1,2.12-2.7,7.36,7.36,0,0,1,3.56-.72,10.92,10.92,0,0,1,3.3.36,2.66,2.66,0,0,1,1.56,1.41,6.13,6.13,0,0,1,.53,2.77A37.55,37.55,0,0,1,227.35,106.91Z"></path><g class="cls-5"><path class="cls-8" d="M95.31,107.58s7.44-16.11,40.09-14,116.13,18.6,120.27-7.85,4.13-35.54,4.13-35.54L144.08,41.05H80.85S64.32,78.65,64.32,79.89,95.31,107.58,95.31,107.58Z"></path></g></svg> 